<svg width="50" height="50" viewBox="0 0 50 50" fill="none" xmlns="http://www.w3.org/2000/svg">
<path d="M34.5388 25.6174C34.5017 21.1917 38.1609 19.0406 38.3216 18.9417C36.2448 15.9253 33.0306 15.505 31.9056 15.4679C29.2106 15.1836 26.5898 17.0874 25.2176 17.0874C23.8206 17.0874 21.6943 15.505 19.4196 15.5421C16.4898 15.5915 13.733 17.2852 12.2371 19.9307C9.13419 25.3083 11.4459 33.2202 14.4253 37.5717C15.9211 39.6981 17.6518 42.084 19.9389 41.9975C22.1641 41.9109 23.0047 40.5758 25.6873 40.5758C28.3576 40.5758 29.1364 41.9975 31.4605 41.948C33.8588 41.9109 35.3547 39.8093 36.8011 37.6583C38.5194 35.2229 39.2117 32.8123 39.2364 32.6886C39.1746 32.6639 34.5882 30.9085 34.5388 25.6174Z" fill="#4A4848"/>
<path d="M30.1505 12.6125C31.3497 11.1167 32.1656 9.07687 31.9431 7C30.2124 7.07417 28.0366 8.19915 26.788 9.67026C25.6878 10.9683 24.6988 13.0823 24.946 15.0726C26.8993 15.2209 28.902 14.0836 30.1505 12.6125Z" fill="#4A4848"/>
</svg>
